<svg width="18" height="18" viewBox="0 0 18 18" fill="none" xmlns="http://www.w3.org/2000/svg">
<path fill-rule="evenodd" clip-rule="evenodd" d="M5.28937 0.054C6.24937 0.0105 6.55575 0 9 0C11.4443 0 11.7506 0.0105 12.7106 0.054C14.1739 0.12075 15.4583 0.47925 16.4895 1.5105C17.5211 2.54212 17.8792 3.82687 17.946 5.28937C17.9895 6.24937 18 6.55575 18 9C18 11.4443 17.9895 11.7506 17.946 12.7106C17.8792 14.1739 17.5208 15.4583 16.4895 16.4895C15.4579 17.5211 14.1727 17.8792 12.7106 17.946C11.7506 17.9895 11.4443 18 9 18C6.55575 18 6.24937 17.9895 5.28937 17.946C3.82612 17.8792 2.54175 17.5208 1.5105 16.4895C0.478875 15.4579 0.12075 14.1731 0.054 12.7106C0.0105 11.7506 0 11.4443 0 9C0 6.55575 0.0105 6.24937 0.054 5.28937C0.12075 3.82612 0.47925 2.54175 1.5105 1.5105C2.54212 0.478875 3.82687 0.12075 5.28937 0.054ZM12.6363 1.67408C11.6872 1.63058 11.4026 1.62158 8.99959 1.62158C6.59659 1.62158 6.31197 1.63096 5.36284 1.67408C4.33872 1.72096 3.38809 1.92608 2.65684 2.65733C1.92559 3.38858 1.72047 4.33921 1.67359 5.36333C1.63009 6.31246 1.62109 6.59708 1.62109 9.00008C1.62109 11.4031 1.63047 11.6877 1.67359 12.6368C1.72047 13.661 1.92559 14.6116 2.65684 15.3428C3.38809 16.0741 4.33872 16.2792 5.36284 16.3261C6.31159 16.3696 6.59622 16.3786 8.99959 16.3786C11.403 16.3786 11.6876 16.3692 12.6363 16.3261C13.6605 16.2792 14.6111 16.0741 15.3423 15.3428C16.0736 14.6116 16.2787 13.661 16.3256 12.6368C16.3691 11.6877 16.3781 11.4031 16.3781 9.00008C16.3781 6.59708 16.3687 6.31246 16.3256 5.36333C16.2787 4.33921 16.0736 3.38858 15.3423 2.65733C14.6111 1.92608 13.6605 1.72096 12.6363 1.67408Z" fill="#161C2D"/>
<path fill-rule="evenodd" clip-rule="evenodd" d="M4.91016 9.40918C4.91016 6.92403 6.92464 4.90918 9.41016 4.90918C11.8957 4.90918 13.9102 6.92366 13.9102 9.40918C13.9102 11.8947 11.8957 13.9092 9.41016 13.9092C6.92464 13.9092 4.91016 11.8943 4.91016 9.40918ZM6.48828 9.40941C6.48828 11.0226 7.79622 12.3305 9.40941 12.3305C11.0226 12.3305 12.3305 11.0226 12.3305 9.40941C12.3305 7.79622 11.0226 6.48828 9.40941 6.48828C7.79622 6.48828 6.48828 7.79622 6.48828 9.40941Z" fill="#161C2D"/>
<circle cx="13.5007" cy="4.50022" r="1.22727" fill="#161C2D"/>
</svg>
