<svg width="18" height="18" viewBox="0 0 18 18" fill="none" xmlns="http://www.w3.org/2000/svg">
<path fill-rule="evenodd" clip-rule="evenodd" d="M0.75 0H17.25C17.6625 0 18 0.3375 18 0.75V17.25C18 17.6625 17.6625 18 17.25 18H0.75C0.3375 18 0 17.6625 0 17.25V0.75C0 0.3375 0.3375 0 0.75 0ZM2.66406 15.3375H5.32656V6.75H2.66406V15.3375ZM4.01406 5.5875C3.15156 5.5875 2.47656 4.9125 2.47656 4.05C2.47656 3.1875 3.15156 2.5125 4.01406 2.5125C4.87656 2.5125 5.55156 3.1875 5.55156 4.05C5.55156 4.875 4.87656 5.5875 4.01406 5.5875ZM12.6742 15.3375H15.2992V10.6125C15.2992 8.28749 14.8117 6.52499 12.1117 6.52499C10.8367 6.52499 9.93672 7.23749 9.59922 7.91249H9.56172V6.74999H7.01172V15.3375H9.67422V11.1C9.67422 9.97499 9.89922 8.88749 11.2867 8.88749C12.6742 8.88749 12.6742 10.1625 12.6742 11.175V15.3375Z" fill="#161C2D"/>
</svg>
